solid usiBlack
facet normal 0 0 1
  outer loop
    vertex 26.08918952941895 -11.77626514434814 294.2739868164062
    vertex -28.22152900695801 0.6631344556808472 294.2739868164062
    vertex -28.59419250488281 -1.280742287635803 294.2739868164062
  endloop
endfacet
facet normal 0 0 1
  outer loop
    vertex -28.22152900695801 0.6631344556808472 294.2739868164062
    vertex 26.08918952941895 -11.77626514434814 294.2739868164062
    vertex -28.05584907531738 1.523967385292053 294.2739868164062
  endloop
endfacet
facet normal 0 0 1
  outer loop
    vertex -28.05584907531738 1.523967385292053 294.2739868164062
    vertex 26.08918952941895 -11.77626514434814 294.2739868164062
    vertex -27.83853912353516 1.487757205963135 294.2739868164062
  endloop
endfacet
facet normal 0 0 1
  outer loop
    vertex -27.83853912353516 1.487757205963135 294.2739868164062
    vertex 26.08918952941895 -11.77626514434814 294.2739868164062
    vertex -25.73225212097168 1.13594925403595 294.2739868164062
  endloop
endfacet
facet normal 0 0 1
  outer loop
    vertex -25.73225212097168 1.13594925403595 294.2739868164062
    vertex 26.08918952941895 -11.77626514434814 294.2739868164062
    vertex -25.47080421447754 2.500952005386353 294.2739868164062
  endloop
endfacet
facet normal 0 0 1
  outer loop
    vertex -25.47080421447754 2.500952005386353 294.2739868164062
    vertex 26.08918952941895 -11.77626514434814 294.2739868164062
    vertex -24.7212963104248 7.017654895782471 294.2739868164062
  endloop
endfacet
facet normal 0 0 1
  outer loop
    vertex -24.7212963104248 7.017654895782471 294.2739868164062
    vertex 26.08918952941895 -11.77626514434814 294.2739868164062
    vertex -24.44112968444824 8.471299171447754 294.2739868164062
  endloop
endfacet
facet normal 0 0 1
  outer loop
    vertex -24.44112968444824 8.471299171447754 294.2739868164062
    vertex 26.08918952941895 -11.77626514434814 294.2739868164062
    vertex 24.34246635437012 -8.401274681091309 294.2739868164062
  endloop
endfacet
facet normal 0 0 1
  outer loop
    vertex 24.34246635437012 -8.401274681091309 294.2739868164062
    vertex 26.08918952941895 -11.77626514434814 294.2739868164062
    vertex 26.65202331542969 -8.843024253845215 294.2739868164062
  endloop
endfacet
facet normal 0 0 1
  outer loop
    vertex 26.65202331542969 -8.843024253845215 294.2739868164062
    vertex 26.08918952941895 -11.77626514434814 294.2739868164062
    vertex 26.33943939208984 -10.47304916381836 294.2739868164062
  endloop
endfacet
facet normal 0 0 1
  outer loop
    vertex 27.35504531860352 -5.177462100982666 294.2739868164062
    vertex 25.28374862670898 -2.554221868515015 294.2739868164062
    vertex 24.57821083068848 -7.17578125 294.2739868164062
  endloop
endfacet
facet normal 0 0 1
  outer loop
    vertex 25.28374862670898 -2.554221868515015 294.2739868164062
    vertex 27.35504531860352 -5.177462100982666 294.2739868164062
    vertex 26.06170845031738 -3.53933572769165 294.2739868164062
  endloop
endfacet
facet normal 0 0 1
  outer loop
    vertex -25.95560073852539 8.760643005371094 294.2739868164062
    vertex -26.50751876831055 9.592371940612793 294.2739868164062
    vertex -26.64208984375 8.89194393157959 294.2739868164062
  endloop
endfacet
facet normal 0 0 1
  outer loop
    vertex -26.50751876831055 9.592371940612793 294.2739868164062
    vertex -25.95560073852539 8.760643005371094 294.2739868164062
    vertex -26.08920288085938 11.77637577056885 294.2739868164062
  endloop
endfacet
facet normal 0 0 1
  outer loop
    vertex -26.08920288085938 11.77637577056885 294.2739868164062
    vertex -25.95560073852539 8.760643005371094 294.2739868164062
    vertex 28.59417915344238 1.280852198600769 294.2739868164062
  endloop
endfacet
facet normal 0 0 1
  outer loop
    vertex 28.59417915344238 1.280852198600769 294.2739868164062
    vertex -25.95560073852539 8.760643005371094 294.2739868164062
    vertex -24.44112968444824 8.471299171447754 294.2739868164062
  endloop
endfacet
facet normal 0 0 1
  outer loop
    vertex 28.59417915344238 1.280852198600769 294.2739868164062
    vertex -24.44112968444824 8.471299171447754 294.2739868164062
    vertex 25.58401870727539 -0.9919615387916565 294.2739868164062
  endloop
endfacet
facet normal 0 0 1
  outer loop
    vertex 25.58401870727539 -0.9919615387916565 294.2739868164062
    vertex -24.44112968444824 8.471299171447754 294.2739868164062
    vertex 25.37051200866699 -2.101880311965942 294.2739868164062
  endloop
endfacet
facet normal 0 0 1
  outer loop
    vertex 25.37051200866699 -2.101880311965942 294.2739868164062
    vertex -24.44112968444824 8.471299171447754 294.2739868164062
    vertex 25.28374862670898 -2.554221868515015 294.2739868164062
  endloop
endfacet
facet normal 0 0 1
  outer loop
    vertex 25.28374862670898 -2.554221868515015 294.2739868164062
    vertex -24.44112968444824 8.471299171447754 294.2739868164062
    vertex 24.34246635437012 -8.401274681091309 294.2739868164062
  endloop
endfacet
facet normal 0 0 1
  outer loop
    vertex 25.28374862670898 -2.554221868515015 294.2739868164062
    vertex 24.34246635437012 -8.401274681091309 294.2739868164062
    vertex 24.57821083068848 -7.17578125 294.2739868164062
  endloop
endfacet
facet normal 0 0 1
  outer loop
    vertex 28.59417915344238 1.280852198600769 294.2739868164062
    vertex 25.58401870727539 -0.9919615387916565 294.2739868164062
    vertex 28.28163528442383 -0.3471735119819641 294.2739868164062
  endloop
endfacet
facet normal 0 0 1
  outer loop
    vertex 28.28163528442383 -0.3471735119819641 294.2739868164062
    vertex 25.58401870727539 -0.9919615387916565 294.2739868164062
    vertex 28.06689834594727 -1.469069004058838 294.2739868164062
  endloop
endfacet
facet normal 0 0 1
  outer loop
    vertex -25.47080421447754 2.500952005386353 294.2739868164062
    vertex -26.36176872253418 5.861368656158447 294.2739868164062
    vertex -27.35840606689453 5.1596360206604 294.2739868164062
  endloop
endfacet
facet normal 0 0 1
  outer loop
    vertex -26.36176872253418 5.861368656158447 294.2739868164062
    vertex -25.47080421447754 2.500952005386353 294.2739868164062
    vertex -24.7212963104248 7.017654895782471 294.2739868164062
  endloop
endfacet
facet normal -0.1884921193122864 -0.9820746779441833 -3.511047168558434e-07
  outer loop
    vertex 26.08918952941895 -11.77626514434814 294.2739868164062
    vertex -28.59419250488281 -1.280742287635803 277.4039916992188
    vertex 26.08918952941895 -11.77626514434814 277.4039916992188
  endloop
endfacet
facet normal -0.1884921193122864 -0.9820746779441833 -3.511047168558434e-07
  outer loop
    vertex -28.59419250488281 -1.280742287635803 277.4039916992188
    vertex 26.08918952941895 -11.77626514434814 294.2739868164062
    vertex -28.59419250488281 -1.280742287635803 294.2739868164062
  endloop
endfacet
facet normal 0.9820578098297119 -0.1885800808668137 -9.207562614397719e-31
  outer loop
    vertex 26.33943939208984 -10.47304916381836 277.4039916992188
    vertex 26.08918952941895 -11.77626514434814 294.2739868164062
    vertex 26.08918952941895 -11.77626514434814 277.4039916992188
  endloop
endfacet
facet normal 0.9820578098297119 -0.1885800808668137 -9.207562614397719e-31
  outer loop
    vertex 26.08918952941895 -11.77626514434814 294.2739868164062
    vertex 26.33943939208984 -10.47304916381836 277.4039916992188
    vertex 26.33943939208984 -10.47304916381836 294.2739868164062
  endloop
endfacet
facet normal 0.982105016708374 -0.1883340030908585 -9.64944974878143e-31
  outer loop
    vertex 26.65202331542969 -8.843024253845215 277.4039916992188
    vertex 26.33943939208984 -10.47304916381836 294.2739868164062
    vertex 26.33943939208984 -10.47304916381836 277.4039916992188
  endloop
endfacet
facet normal 0.982105016708374 -0.1883340030908585 -9.64944974878143e-31
  outer loop
    vertex 26.33943939208984 -10.47304916381836 294.2739868164062
    vertex 26.65202331542969 -8.843024253845215 277.4039916992188
    vertex 26.65202331542969 -8.843024253845215 294.2739868164062
  endloop
endfacet
facet normal 0.1878645420074463 0.9821949601173401 -1.012523560287758e-18
  outer loop
    vertex 24.34246635437012 -8.401274681091309 294.2739868164062
    vertex 26.65202331542969 -8.843024253845215 277.4039916992188
    vertex 24.34246635437012 -8.401274681091309 277.4039916992188
  endloop
endfacet
facet normal 0.1878645420074463 0.9821949601173401 -1.012523560287758e-18
  outer loop
    vertex 26.65202331542969 -8.843024253845215 277.4039916992188
    vertex 24.34246635437012 -8.401274681091309 294.2739868164062
    vertex 26.65202331542969 -8.843024253845215 294.2739868164062
  endloop
endfacet
facet normal 0.9819955825805664 -0.1889037489891052 -4.603489784599855e-31
  outer loop
    vertex 24.57821083068848 -7.17578125 277.4039916992188
    vertex 24.34246635437012 -8.401274681091309 294.2739868164062
    vertex 24.34246635437012 -8.401274681091309 277.4039916992188
  endloop
endfacet
facet normal 0.9819955825805664 -0.1889037489891052 -4.603489784599855e-31
  outer loop
    vertex 24.34246635437012 -8.401274681091309 294.2739868164062
    vertex 24.57821083068848 -7.17578125 277.4039916992188
    vertex 24.57821083068848 -7.17578125 294.2739868164062
  endloop
endfacet
facet normal 0.5841119289398193 -0.8116731643676758 -3.346945225547267e-18
  outer loop
    vertex 27.35504531860352 -5.177462100982666 294.2739868164062
    vertex 24.57821083068848 -7.17578125 277.4039916992188
    vertex 27.35504531860352 -5.177462100982666 277.4039916992188
  endloop
endfacet
facet normal 0.5841119289398193 -0.8116731643676758 -3.346945225547267e-18
  outer loop
    vertex 24.57821083068848 -7.17578125 277.4039916992188
    vertex 27.35504531860352 -5.177462100982666 294.2739868164062
    vertex 24.57821083068848 -7.17578125 294.2739868164062
  endloop
endfacet
facet normal 0.784864068031311 0.6196679472923279 -3.236397706558384e-18
  outer loop
    vertex 26.06170845031738 -3.53933572769165 277.4039916992188
    vertex 27.35504531860352 -5.177462100982666 294.2739868164062
    vertex 27.35504531860352 -5.177462100982666 277.4039916992188
  endloop
endfacet
facet normal 0.784864068031311 0.6196679472923279 -3.236397706558384e-18
  outer loop
    vertex 27.35504531860352 -5.177462100982666 294.2739868164062
    vertex 26.06170845031738 -3.53933572769165 277.4039916992188
    vertex 26.06170845031738 -3.53933572769165 294.2739868164062
  endloop
endfacet
facet normal 0.7847905158996582 0.6197611093521118 3.679013553737471e-31
  outer loop
    vertex 25.28374862670898 -2.554221868515015 277.4039916992188
    vertex 26.06170845031738 -3.53933572769165 294.2739868164062
    vertex 26.06170845031738 -3.53933572769165 277.4039916992188
  endloop
endfacet
facet normal 0.7847905158996582 0.6197611093521118 3.679013553737471e-31
  outer loop
    vertex 26.06170845031738 -3.53933572769165 294.2739868164062
    vertex 25.28374862670898 -2.554221868515015 277.4039916992188
    vertex 25.28374862670898 -2.554221868515015 294.2739868164062
  endloop
endfacet
facet normal 0.9820966720581055 -0.1883776783943176 0
  outer loop
    vertex 25.37051200866699 -2.101880311965942 277.4039916992188
    vertex 25.28374862670898 -2.554221868515015 294.2739868164062
    vertex 25.28374862670898 -2.554221868515015 277.4039916992188
  endloop
endfacet
facet normal 0.9820966720581055 -0.1883776783943176 0
  outer loop
    vertex 25.28374862670898 -2.554221868515015 294.2739868164062
    vertex 25.37051200866699 -2.101880311965942 277.4039916992188
    vertex 25.37051200866699 -2.101880311965942 294.2739868164062
  endloop
endfacet
facet normal 0.9819966554641724 -0.1888981908559799 -1.106917920573635e-32
  outer loop
    vertex 25.58401870727539 -0.9919615387916565 277.4039916992188
    vertex 25.37051200866699 -2.101880311965942 294.2739868164062
    vertex 25.37051200866699 -2.101880311965942 277.4039916992188
  endloop
endfacet
facet normal 0.9819966554641724 -0.1888981908559799 -1.106917920573635e-32
  outer loop
    vertex 25.37051200866699 -2.101880311965942 294.2739868164062
    vertex 25.58401870727539 -0.9919615387916565 277.4039916992188
    vertex 25.58401870727539 -0.9919615387916565 294.2739868164062
  endloop
endfacet
facet normal -0.1887064725160599 -0.9820335507392883 -1.012357193587058e-18
  outer loop
    vertex 28.06689834594727 -1.469069004058838 294.2739868164062
    vertex 25.58401870727539 -0.9919615387916565 277.4039916992188
    vertex 28.06689834594727 -1.469069004058838 277.4039916992188
  endloop
endfacet
facet normal -0.1887064725160599 -0.9820335507392883 -1.012357193587058e-18
  outer loop
    vertex 25.58401870727539 -0.9919615387916565 277.4039916992188
    vertex 28.06689834594727 -1.469069004058838 294.2739868164062
    vertex 25.58401870727539 -0.9919615387916565 294.2739868164062
  endloop
endfacet
facet normal 0.9821703433990479 -0.1879932284355164 9.208617738127017e-31
  outer loop
    vertex 28.28163528442383 -0.3471735119819641 277.4039916992188
    vertex 28.06689834594727 -1.469069004058838 294.2739868164062
    vertex 28.06689834594727 -1.469069004058838 277.4039916992188
  endloop
endfacet
facet normal 0.9821703433990479 -0.1879932284355164 9.208617738127017e-31
  outer loop
    vertex 28.06689834594727 -1.469069004058838 294.2739868164062
    vertex 28.28163528442383 -0.3471735119819641 277.4039916992188
    vertex 28.28163528442383 -0.3471735119819641 294.2739868164062
  endloop
endfacet
facet normal 0.9820665717124939 -0.1885345578193665 -9.207644428804536e-31
  outer loop
    vertex 28.59417915344238 1.280852198600769 277.4039916992188
    vertex 28.28163528442383 -0.3471735119819641 294.2739868164062
    vertex 28.28163528442383 -0.3471735119819641 277.4039916992188
  endloop
endfacet
facet normal 0.9820665717124939 -0.1885345578193665 -9.207644428804536e-31
  outer loop
    vertex 28.28163528442383 -0.3471735119819641 294.2739868164062
    vertex 28.59417915344238 1.280852198600769 277.4039916992188
    vertex 28.59417915344238 1.280852198600769 294.2739868164062
  endloop
endfacet
facet normal 0.1884921491146088 0.9820746779441833 2.301930150209617e-31
  outer loop
    vertex -26.08920288085938 11.77637577056885 294.2739868164062
    vertex 28.59417915344238 1.280852198600769 277.4039916992188
    vertex -26.08920288085938 11.77637577056885 277.4039916992188
  endloop
endfacet
facet normal 0.1884921491146088 0.9820746779441833 2.301930150209617e-31
  outer loop
    vertex 28.59417915344238 1.280852198600769 277.4039916992188
    vertex -26.08920288085938 11.77637577056885 294.2739868164062
    vertex 28.59417915344238 1.280852198600769 294.2739868164062
  endloop
endfacet
facet normal -0.982146680355072 0.1881168037652969 0
  outer loop
    vertex -26.08920288085938 11.77637577056885 294.2739868164062
    vertex -26.50751876831055 9.592371940612793 277.4039916992188
    vertex -26.50751876831055 9.592371940612793 294.2739868164062
  endloop
endfacet
facet normal -0.982146680355072 0.1881168037652969 0
  outer loop
    vertex -26.50751876831055 9.592371940612793 277.4039916992188
    vertex -26.08920288085938 11.77637577056885 294.2739868164062
    vertex -26.08920288085938 11.77637577056885 277.4039916992188
  endloop
endfacet
facet normal -0.9820393323898315 0.1886764168739319 -3.890048699596069e-19
  outer loop
    vertex -26.50751876831055 9.592371940612793 294.2739868164062
    vertex -26.64208984375 8.89194393157959 277.4039916992188
    vertex -26.64208984375 8.89194393157959 294.2739868164062
  endloop
endfacet
facet normal -0.9820393323898315 0.1886764168739319 -3.890048699596069e-19
  outer loop
    vertex -26.64208984375 8.89194393157959 277.4039916992188
    vertex -26.50751876831055 9.592371940612793 294.2739868164062
    vertex -26.50751876831055 9.592371940612793 277.4039916992188
  endloop
endfacet
facet normal -0.1878590285778046 -0.9821959733963013 8.806629115449481e-32
  outer loop
    vertex -25.95560073852539 8.760643005371094 294.2739868164062
    vertex -26.64208984375 8.89194393157959 277.4039916992188
    vertex -25.95560073852539 8.760643005371094 277.4039916992188
  endloop
endfacet
facet normal -0.1878590285778046 -0.9821959733963013 8.806629115449481e-32
  outer loop
    vertex -26.64208984375 8.89194393157959 277.4039916992188
    vertex -25.95560073852539 8.760643005371094 294.2739868164062
    vertex -26.64208984375 8.89194393157959 294.2739868164062
  endloop
endfacet
facet normal -0.1876585781574249 -0.9822342991828918 2.302304427610919e-31
  outer loop
    vertex -24.44112968444824 8.471299171447754 294.2739868164062
    vertex -25.95560073852539 8.760643005371094 277.4039916992188
    vertex -24.44112968444824 8.471299171447754 277.4039916992188
  endloop
endfacet
facet normal -0.1876585781574249 -0.9822342991828918 2.302304427610919e-31
  outer loop
    vertex -25.95560073852539 8.760643005371094 277.4039916992188
    vertex -24.44112968444824 8.471299171447754 294.2739868164062
    vertex -25.95560073852539 8.760643005371094 294.2739868164062
  endloop
endfacet
facet normal -0.9819289445877075 0.1892500817775726 4.603177103102537e-31
  outer loop
    vertex -24.44112968444824 8.471299171447754 294.2739868164062
    vertex -24.7212963104248 7.017654895782471 277.4039916992188
    vertex -24.7212963104248 7.017654895782471 294.2739868164062
  endloop
endfacet
facet normal -0.9819289445877075 0.1892500817775726 4.603177103102537e-31
  outer loop
    vertex -24.7212963104248 7.017654895782471 277.4039916992188
    vertex -24.44112968444824 8.471299171447754 294.2739868164062
    vertex -24.44112968444824 8.471299171447754 277.4039916992188
  endloop
endfacet
facet normal -0.576119601726532 0.8173654079437256 -1.685208754702113e-18
  outer loop
    vertex -26.36176872253418 5.861368656158447 294.2739868164062
    vertex -24.7212963104248 7.017654895782471 277.4039916992188
    vertex -26.36176872253418 5.861368656158447 277.4039916992188
  endloop
endfacet
facet normal -0.576119601726532 0.8173654079437256 -1.685208754702113e-18
  outer loop
    vertex -24.7212963104248 7.017654895782471 277.4039916992188
    vertex -26.36176872253418 5.861368656158447 294.2739868164062
    vertex -24.7212963104248 7.017654895782471 294.2739868164062
  endloop
endfacet
facet normal -0.5757099986076355 0.8176539540290833 -5.397733231433509e-31
  outer loop
    vertex -27.35840606689453 5.1596360206604 294.2739868164062
    vertex -26.36176872253418 5.861368656158447 277.4039916992188
    vertex -27.35840606689453 5.1596360206604 277.4039916992188
  endloop
endfacet
facet normal -0.5757099986076355 0.8176539540290833 -5.397733231433509e-31
  outer loop
    vertex -26.36176872253418 5.861368656158447 277.4039916992188
    vertex -27.35840606689453 5.1596360206604 294.2739868164062
    vertex -26.36176872253418 5.861368656158447 294.2739868164062
  endloop
endfacet
facet normal -0.8153921365737915 -0.5789089798927307 -3.392328878058506e-32
  outer loop
    vertex -27.35840606689453 5.1596360206604 294.2739868164062
    vertex -25.47080421447754 2.500952005386353 277.4039916992188
    vertex -25.47080421447754 2.500952005386353 294.2739868164062
  endloop
endfacet
facet normal -0.8153921365737915 -0.5789089798927307 -3.392328878058506e-32
  outer loop
    vertex -25.47080421447754 2.500952005386353 277.4039916992188
    vertex -27.35840606689453 5.1596360206604 294.2739868164062
    vertex -27.35840606689453 5.1596360206604 277.4039916992188
  endloop
endfacet
facet normal -0.982146680355072 0.1881168037652969 -5.511695381017974e-33
  outer loop
    vertex -25.47080421447754 2.500952005386353 294.2739868164062
    vertex -25.73225212097168 1.13594925403595 277.4039916992188
    vertex -25.73225212097168 1.13594925403595 294.2739868164062
  endloop
endfacet
facet normal -0.982146680355072 0.1881168037652969 -5.511695381017974e-33
  outer loop
    vertex -25.73225212097168 1.13594925403595 277.4039916992188
    vertex -25.47080421447754 2.500952005386353 294.2739868164062
    vertex -25.47080421447754 2.500952005386353 277.4039916992188
  endloop
endfacet
facet normal 0.1647451817989349 0.9863361716270447 -3.37463659581734e-19
  outer loop
    vertex -27.83853912353516 1.487757205963135 294.2739868164062
    vertex -25.73225212097168 1.13594925403595 277.4039916992188
    vertex -27.83853912353516 1.487757205963135 277.4039916992188
  endloop
endfacet
facet normal 0.1647451817989349 0.9863361716270447 -3.37463659581734e-19
  outer loop
    vertex -25.73225212097168 1.13594925403595 277.4039916992188
    vertex -27.83853912353516 1.487757205963135 294.2739868164062
    vertex -25.73225212097168 1.13594925403595 294.2739868164062
  endloop
endfacet
facet normal 0.1643636971712112 0.9863998293876648 1.54103865194354e-31
  outer loop
    vertex -28.05584907531738 1.523967385292053 294.2739868164062
    vertex -27.83853912353516 1.487757205963135 277.4039916992188
    vertex -28.05584907531738 1.523967385292053 277.4039916992188
  endloop
endfacet
facet normal 0.1643636971712112 0.9863998293876648 1.54103865194354e-31
  outer loop
    vertex -27.83853912353516 1.487757205963135 277.4039916992188
    vertex -28.05584907531738 1.523967385292053 294.2739868164062
    vertex -27.83853912353516 1.487757205963135 294.2739868164062
  endloop
endfacet
facet normal -0.982114851474762 0.1882827579975128 0
  outer loop
    vertex -28.22152900695801 0.6631344556808472 294.2739868164062
    vertex -28.59419250488281 -1.280742287635803 277.4039916992188
    vertex -28.59419250488281 -1.280742287635803 294.2739868164062
  endloop
endfacet
facet normal -0.982114851474762 0.1882827579975128 0
  outer loop
    vertex -28.59419250488281 -1.280742287635803 277.4039916992188
    vertex -28.22152900695801 0.6631344556808472 294.2739868164062
    vertex -28.22152900695801 0.6631344556808472 277.4039916992188
  endloop
endfacet
facet normal -0.9819779992103577 0.1889951527118683 9.179126935853587e-31
  outer loop
    vertex -28.05584907531738 1.523967385292053 294.2739868164062
    vertex -28.22152900695801 0.6631344556808472 277.4039916992188
    vertex -28.22152900695801 0.6631344556808472 294.2739868164062
  endloop
endfacet
facet normal -0.9819779992103577 0.1889951527118683 9.179126935853587e-31
  outer loop
    vertex -28.22152900695801 0.6631344556808472 277.4039916992188
    vertex -28.05584907531738 1.523967385292053 294.2739868164062
    vertex -28.05584907531738 1.523967385292053 277.4039916992188
  endloop
endfacet
facet normal 0 0 -1
  outer loop
    vertex -26.36176872253418 5.861368656158447 277.4039916992188
    vertex -25.47080421447754 2.500952005386353 277.4039916992188
    vertex -27.35840606689453 5.1596360206604 277.4039916992188
  endloop
endfacet
facet normal 0 0 -1
  outer loop
    vertex -25.47080421447754 2.500952005386353 277.4039916992188
    vertex -26.36176872253418 5.861368656158447 277.4039916992188
    vertex -24.7212963104248 7.017654895782471 277.4039916992188
  endloop
endfacet
facet normal 0 0 -1
  outer loop
    vertex -26.50751876831055 9.592371940612793 277.4039916992188
    vertex -25.95560073852539 8.760643005371094 277.4039916992188
    vertex -26.64208984375 8.89194393157959 277.4039916992188
  endloop
endfacet
facet normal 0 0 -1
  outer loop
    vertex -25.95560073852539 8.760643005371094 277.4039916992188
    vertex -26.50751876831055 9.592371940612793 277.4039916992188
    vertex -26.08920288085938 11.77637577056885 277.4039916992188
  endloop
endfacet
facet normal 0 0 -1
  outer loop
    vertex -25.95560073852539 8.760643005371094 277.4039916992188
    vertex -26.08920288085938 11.77637577056885 277.4039916992188
    vertex 28.59417915344238 1.280852198600769 277.4039916992188
  endloop
endfacet
facet normal 0 0 -1
  outer loop
    vertex -25.95560073852539 8.760643005371094 277.4039916992188
    vertex 28.59417915344238 1.280852198600769 277.4039916992188
    vertex -24.44112968444824 8.471299171447754 277.4039916992188
  endloop
endfacet
facet normal 0 0 -1
  outer loop
    vertex -24.44112968444824 8.471299171447754 277.4039916992188
    vertex 28.59417915344238 1.280852198600769 277.4039916992188
    vertex 25.58401870727539 -0.9919615387916565 277.4039916992188
  endloop
endfacet
facet normal 0 0 -1
  outer loop
    vertex -24.44112968444824 8.471299171447754 277.4039916992188
    vertex 25.58401870727539 -0.9919615387916565 277.4039916992188
    vertex 25.37051200866699 -2.101880311965942 277.4039916992188
  endloop
endfacet
facet normal 0 0 -1
  outer loop
    vertex -24.44112968444824 8.471299171447754 277.4039916992188
    vertex 25.37051200866699 -2.101880311965942 277.4039916992188
    vertex 25.28374862670898 -2.554221868515015 277.4039916992188
  endloop
endfacet
facet normal 0 0 -1
  outer loop
    vertex -24.44112968444824 8.471299171447754 277.4039916992188
    vertex 25.28374862670898 -2.554221868515015 277.4039916992188
    vertex 24.34246635437012 -8.401274681091309 277.4039916992188
  endloop
endfacet
facet normal 0 0 -1
  outer loop
    vertex 24.34246635437012 -8.401274681091309 277.4039916992188
    vertex 25.28374862670898 -2.554221868515015 277.4039916992188
    vertex 24.57821083068848 -7.17578125 277.4039916992188
  endloop
endfacet
facet normal 0 0 -1
  outer loop
    vertex 25.58401870727539 -0.9919615387916565 277.4039916992188
    vertex 28.59417915344238 1.280852198600769 277.4039916992188
    vertex 28.28163528442383 -0.3471735119819641 277.4039916992188
  endloop
endfacet
facet normal 0 0 -1
  outer loop
    vertex 25.58401870727539 -0.9919615387916565 277.4039916992188
    vertex 28.28163528442383 -0.3471735119819641 277.4039916992188
    vertex 28.06689834594727 -1.469069004058838 277.4039916992188
  endloop
endfacet
facet normal 0 0 -1
  outer loop
    vertex 25.28374862670898 -2.554221868515015 277.4039916992188
    vertex 27.35504531860352 -5.177462100982666 277.4039916992188
    vertex 24.57821083068848 -7.17578125 277.4039916992188
  endloop
endfacet
facet normal 0 0 -1
  outer loop
    vertex 27.35504531860352 -5.177462100982666 277.4039916992188
    vertex 25.28374862670898 -2.554221868515015 277.4039916992188
    vertex 26.06170845031738 -3.53933572769165 277.4039916992188
  endloop
endfacet
facet normal 0 0 -1
  outer loop
    vertex -28.22152900695801 0.6631344556808472 277.4039916992188
    vertex 26.08918952941895 -11.77626514434814 277.4039916992188
    vertex -28.59419250488281 -1.280742287635803 277.4039916992188
  endloop
endfacet
facet normal 0 0 -1
  outer loop
    vertex 26.08918952941895 -11.77626514434814 277.4039916992188
    vertex -28.22152900695801 0.6631344556808472 277.4039916992188
    vertex -28.05584907531738 1.523967385292053 277.4039916992188
  endloop
endfacet
facet normal 0 0 -1
  outer loop
    vertex 26.08918952941895 -11.77626514434814 277.4039916992188
    vertex -28.05584907531738 1.523967385292053 277.4039916992188
    vertex -27.83853912353516 1.487757205963135 277.4039916992188
  endloop
endfacet
facet normal 0 0 -1
  outer loop
    vertex 26.08918952941895 -11.77626514434814 277.4039916992188
    vertex -27.83853912353516 1.487757205963135 277.4039916992188
    vertex -25.73225212097168 1.13594925403595 277.4039916992188
  endloop
endfacet
facet normal 0 0 -1
  outer loop
    vertex 26.08918952941895 -11.77626514434814 277.4039916992188
    vertex -25.73225212097168 1.13594925403595 277.4039916992188
    vertex -25.47080421447754 2.500952005386353 277.4039916992188
  endloop
endfacet
facet normal 0 0 -1
  outer loop
    vertex 26.08918952941895 -11.77626514434814 277.4039916992188
    vertex -25.47080421447754 2.500952005386353 277.4039916992188
    vertex -24.7212963104248 7.017654895782471 277.4039916992188
  endloop
endfacet
facet normal 0 0 -1
  outer loop
    vertex 26.08918952941895 -11.77626514434814 277.4039916992188
    vertex -24.7212963104248 7.017654895782471 277.4039916992188
    vertex -24.44112968444824 8.471299171447754 277.4039916992188
  endloop
endfacet
facet normal 0 0 -1
  outer loop
    vertex 26.08918952941895 -11.77626514434814 277.4039916992188
    vertex -24.44112968444824 8.471299171447754 277.4039916992188
    vertex 24.34246635437012 -8.401274681091309 277.4039916992188
  endloop
endfacet
facet normal 0 0 -1
  outer loop
    vertex 26.08918952941895 -11.77626514434814 277.4039916992188
    vertex 24.34246635437012 -8.401274681091309 277.4039916992188
    vertex 26.65202331542969 -8.843024253845215 277.4039916992188
  endloop
endfacet
facet normal 0 0 -1
  outer loop
    vertex 26.08918952941895 -11.77626514434814 277.4039916992188
    vertex 26.65202331542969 -8.843024253845215 277.4039916992188
    vertex 26.33943939208984 -10.47304916381836 277.4039916992188
  endloop
endfacet
endsolid usiBlack
